<?xml version="1.0" standalone="no"?>
<!DOCTYPE svg PUBLIC "-//W3C//DTD SVG 20010904//EN" "http://www.w3.org/TR/2001/REC-SVG-20010904/DTD/svg10.dtd">
<svg
  version="1.0"
  xmlns="http://www.w3.org/2000/svg"
  width="1414.000000pt"
  height="1414.000000pt"
  viewBox="0 0 1414.000000 1414.000000"
  preserveAspectRatio="xMidYMid meet"
>
  <g
    transform="translate(0.000000,1414.000000) scale(0.100000,-0.100000)"
    fill="#000000"
    stroke="none"
  >
    <path
      d="M1002 11888 l3 -2233 33 -240 c103 -762 204 -1293 367 -1940 554
-2199 1555 -4023 3016 -5496 697 -702 1471 -1306 2385 -1858 l201 -121 100 0
100 0 154 96 c1478 924 2691 2067 3606 3398 1108 1611 1821 3559 2118 5786 71
536 66 327 63 2695 l-3 2140 -6073 3 -6072 2 2 -2232z m9396 715 c34 -110 45
-196 39 -322 -6 -135 -27 -214 -93 -342 -109 -211 -350 -433 -647 -595 -170
-94 93 9 308 119 180 93 368 209 546 340 66 48 125 87 130 87 12 0 2 -135 -16
-235 -54 -291 -253 -550 -553 -721 -89 -51 -244 -114 -369 -149 l-88 -25 90 4
c117 7 245 39 540 136 237 78 347 110 379 110 55 0 -44 -237 -153 -367 -178
-212 -468 -332 -914 -379 -83 -8 -153 -17 -155 -19 -10 -9 173 -19 318 -18
183 2 318 16 617 64 111 18 206 30 210 26 21 -21 -72 -188 -153 -277 -148
-160 -357 -263 -619 -306 -109 -18 -393 -14 -489 6 -27 5 -51 8 -53 6 -9 -9
159 -70 262 -96 151 -38 326 -60 542 -67 100 -3 188 -10 195 -14 10 -7 7 -21
-17 -65 -57 -108 -187 -217 -328 -277 -298 -125 -714 -112 -955 30 l-57 33 50
-47 c152 -141 467 -288 728 -339 54 -11 87 -22 87 -30 0 -22 -103 -104 -175
-139 -115 -55 -172 -67 -362 -72 -132 -4 -194 -1 -268 11 -182 31 -353 97
-473 183 -62 44 -66 45 -48 18 65 -102 205 -224 399 -350 59 -38 107 -75 107
-81 0 -15 -25 -21 -142 -34 -269 -30 -562 62 -821 257 l-57 43 55 -74 c30 -41
99 -143 154 -228 149 -229 147 -227 251 -295 52 -34 111 -80 130 -102 72 -79
136 -253 200 -541 113 -514 187 -716 311 -842 83 -85 149 -113 264 -113 154 0
251 49 301 152 62 124 32 283 -134 723 -163 432 -188 528 -180 686 6 114 35
174 127 264 142 138 313 207 536 217 198 9 317 -31 436 -144 56 -53 110 -136
97 -149 -4 -3 -30 -1 -59 6 -54 13 -155 9 -184 -7 -14 -8 -8 -15 37 -44 70
-45 148 -117 148 -139 0 -13 -18 -20 -77 -33 -55 -12 -126 -41 -239 -98 -129
-65 -178 -84 -247 -97 -85 -16 -86 -16 -103 -55 -23 -49 -58 -77 -100 -77
l-32 0 55 -127 c67 -157 126 -326 160 -458 34 -135 44 -378 19 -475 -34 -136
-109 -240 -227 -319 -233 -156 -523 -120 -757 94 -209 191 -370 513 -398 796
-6 62 -23 116 -24 77 0 -9 -25 -97 -55 -195 -67 -213 -90 -333 -81 -423 12
-125 6 -121 251 -199 272 -86 359 -140 416 -257 29 -59 33 -75 33 -157 1 -88
0 -92 -22 -95 -14 -2 -36 8 -59 28 -71 63 -110 62 -148 -3 -16 -27 -19 -54
-19 -172 -1 -132 -3 -145 -33 -225 -127 -342 -140 -404 -105 -483 12 -26 43
-71 70 -100 63 -67 72 -85 72 -145 0 -35 -8 -65 -30 -105 -30 -57 -38 -101
-20 -112 6 -3 10 -15 10 -26 0 -13 -7 -19 -23 -19 -33 0 -63 -25 -102 -85 -24
-39 -42 -56 -62 -60 -15 -3 -42 -10 -59 -15 -56 -18 -67 -14 -60 22 20 107 20
106 -10 144 -69 87 -78 117 -48 177 l15 32 -25 -28 c-14 -15 -30 -46 -36 -70
-6 -23 -16 -60 -21 -81 -12 -45 -58 -96 -88 -96 -17 0 -19 -4 -10 -32 5 -18 9
-83 9 -144 0 -130 4 -125 -110 -133 l-75 -6 -3 -59 c-2 -32 2 -64 7 -69 24
-24 11 -37 -35 -37 -54 0 -98 23 -132 70 -30 41 -92 170 -92 192 0 23 -9 23
-36 -3 -16 -15 -47 -24 -114 -33 -105 -14 -130 -32 -130 -93 0 -34 0 -34 -37
-27 -85 14 -109 52 -123 189 -5 53 -17 109 -25 125 -27 53 -11 137 36 181 l29
27 -28 11 c-85 33 -127 18 -138 -49 -15 -95 -104 -5 -104 105 0 54 39 178 84
264 l33 65 85 0 c82 1 88 3 189 54 98 49 109 52 178 52 l74 0 43 44 c78 81
123 210 162 459 l19 119 -26 -6 c-14 -3 -69 -9 -121 -12 -153 -10 -307 22
-395 84 l-40 28 -100 -35 c-89 -32 -111 -35 -205 -36 -87 0 -113 4 -152 22
-27 12 -48 27 -48 33 0 7 11 26 26 42 40 48 74 124 90 199 10 50 14 133 12
316 -3 388 37 570 208 933 35 74 56 124 47 110 -9 -14 -51 -59 -92 -100 -58
-57 -106 -91 -196 -142 -255 -142 -291 -165 -358 -227 -37 -36 -79 -83 -93
-106 -22 -38 -64 -147 -64 -166 0 -4 48 -36 106 -71 180 -106 239 -194 232
-340 l-3 -63 -37 -3 c-26 -2 -51 5 -81 22 -71 42 -86 37 -149 -51 -109 -152
-283 -347 -431 -481 l-67 -62 11 -45 c20 -77 7 -168 -39 -284 -23 -57 -42
-112 -42 -122 0 -15 -7 -19 -35 -19 -22 0 -67 -17 -121 -45 -71 -37 -95 -45
-140 -45 -60 0 -94 13 -94 35 0 7 9 17 20 20 11 4 27 20 36 37 14 27 15 41 4
103 -12 71 -11 130 4 170 4 11 -8 3 -26 -19 -102 -120 -112 -128 -161 -133
l-47 -6 0 -47 c0 -60 -14 -101 -59 -173 l-36 -58 -60 6 c-33 3 -69 9 -81 11
-35 9 -54 -20 -54 -83 l0 -56 -41 6 c-82 11 -111 62 -116 207 -2 58 -6 119 -9
137 l-5 32 -56 -20 c-31 -10 -80 -19 -109 -19 -46 0 -55 4 -73 28 -18 25 -21
26 -36 11 -9 -9 -19 -35 -22 -58 -7 -50 -27 -54 -67 -12 -86 89 -71 324 28
426 26 27 55 47 75 51 l32 7 -23 24 c-44 48 -72 56 -130 38 -28 -8 -67 -15
-86 -15 l-35 0 5 63 c6 77 22 109 94 189 31 35 65 80 75 100 11 21 21 38 24
38 3 0 62 -10 132 -22 186 -32 490 -32 615 -1 163 42 284 113 359 213 36 49
38 53 25 78 -22 42 -112 122 -215 192 -160 107 -216 180 -229 302 l-7 63 -90
6 c-111 7 -181 39 -226 105 -30 43 -65 155 -56 178 3 8 32 15 74 19 126 11
251 69 368 170 30 26 110 112 177 190 263 306 391 397 623 443 125 26 397 26
512 1 171 -37 347 -109 539 -222 l97 -57 -5 -102 c-4 -66 -12 -121 -26 -158
-11 -32 -19 -58 -17 -58 2 0 29 48 60 106 64 119 64 125 11 208 -100 156 -245
222 -766 346 -206 49 -330 94 -329 118 0 9 61 67 135 127 121 99 272 240 234
220 -8 -5 -71 -45 -140 -89 -258 -166 -375 -213 -721 -290 -328 -73 -430 -116
-536 -223 -35 -35 -71 -63 -81 -63 -31 0 -99 56 -127 104 -28 48 -54 167 -55
249 l0 47 -41 0 c-31 0 -157 -39 -177 -55 -1 -1 14 -37 34 -81 53 -116 84
-248 84 -359 l0 -92 -42 -16 c-23 -9 -72 -35 -109 -58 -92 -55 -207 -81 -276
-63 -34 9 -28 19 22 38 89 34 119 115 97 258 -10 69 -63 198 -80 198 -14 0
-175 -172 -212 -225 -37 -54 -90 -164 -90 -187 0 -18 -13 -22 -133 -38 -85
-11 -117 -23 -117 -45 0 -15 42 -51 71 -60 10 -4 19 -10 19 -15 0 -32 -138
-11 -182 29 -48 43 -58 126 -37 293 l12 88 63 35 c61 34 159 109 254 194 l45
40 -36 1 c-20 0 -81 -9 -135 -21 -128 -26 -257 -35 -311 -20 -23 6 -55 25 -72
41 -33 34 -65 38 -100 14 -22 -16 -23 -21 -17 -92 7 -71 6 -74 -10 -61 -32 26
-65 118 -71 199 -5 69 -3 82 16 113 25 42 81 81 150 107 107 41 348 64 429 41
18 -6 60 -33 93 -60 61 -52 92 -66 126 -59 19 4 -4 29 -121 134 -40 35 -46 46
-46 81 l0 40 -78 6 c-129 10 -166 35 -177 118 -6 45 -9 49 -35 49 -30 0 -99
-61 -126 -113 -26 -49 -37 -22 -30 76 10 135 34 175 126 216 61 26 225 55 248
42 9 -5 49 -43 89 -85 69 -73 150 -126 195 -126 12 0 19 -14 27 -50 23 -105
77 -175 171 -219 48 -23 68 -26 155 -26 107 0 235 27 235 49 0 7 -26 50 -57
97 -31 46 -65 105 -75 132 -21 56 -26 197 -6 197 7 0 50 -16 96 -36 212 -91
387 -77 637 49 89 44 183 105 440 282 72 49 164 109 205 133 41 24 64 41 50
37 -53 -15 -169 -74 -275 -140 -320 -198 -385 -230 -385 -189 0 11 5 71 10
134 25 281 109 482 277 660 85 91 198 179 314 246 74 43 78 47 69 70 -14 36
-13 194 1 194 6 0 24 -9 40 -20 142 -102 457 -87 638 30 97 63 100 89 17 133
-36 19 -56 22 -166 21 -109 0 -136 -4 -208 -28 -103 -34 -112 -29 -112 56 0
80 -19 114 -73 129 -23 7 -43 13 -45 15 -1 1 2 13 9 27 7 16 36 38 76 58 61
31 71 33 171 33 117 1 183 -6 222 -23 38 -16 150 -42 159 -37 13 9 11 73 -5
117 -33 96 -99 142 -301 210 -63 21 -132 48 -151 60 -43 25 -97 26 -167 5 -87
-27 -89 -26 -82 48 16 168 96 234 377 311 74 20 167 52 207 71 39 19 78 34 87
34 8 0 93 -16 188 -34 376 -75 576 -73 743 8 28 14 57 26 63 26 20 0 34 -75
31 -156 -5 -92 -35 -164 -98 -235 l-38 -44 32 -40 c42 -51 69 -105 111 -223
47 -129 77 -191 118 -238 32 -38 101 -76 159 -89 35 -7 35 -27 -3 -91 -33 -59
-81 -103 -120 -111 -26 -5 -28 -9 -35 -71 -13 -123 -55 -230 -156 -398 -71
-119 -117 -221 -136 -302 l-17 -72 -111 -2 c-103 -1 -106 -2 -45 -8 112 -13
321 -10 422 5 275 41 441 153 519 352 19 48 23 77 23 168 0 127 -11 174 -104
435 -87 245 -107 378 -79 509 10 46 15 53 72 90 116 74 242 143 592 324 585
301 771 417 997 619 123 111 280 308 334 421 10 20 23 37 29 37 6 0 21 -30 33
-67z m-5739 -1395 c25 -12 76 -53 114 -91 66 -67 67 -69 67 -122 0 -34 -10
-80 -25 -121 -27 -72 -26 -91 5 -119 27 -24 25 -38 -10 -86 -140 -193 -81
-483 120 -593 l50 -27 0 74 c0 103 29 191 81 251 44 50 64 57 74 26 3 -10 28
-53 55 -94 89 -136 222 -247 384 -321 45 -20 76 -41 76 -49 0 -8 -17 -43 -37
-78 -98 -167 -146 -334 -147 -516 l-1 -124 -61 4 c-75 5 -151 41 -287 136
-182 130 -261 148 -353 83 -25 -17 -51 -31 -59 -31 -21 0 -38 66 -32 121 7 57
30 102 96 189 41 53 47 68 39 84 -17 32 -140 147 -153 144 -16 -4 -228 -268
-258 -322 l-22 -38 -75 6 c-141 13 -256 70 -361 178 -36 37 -62 92 -52 110 2
5 21 -6 42 -22 39 -32 127 -70 161 -70 12 0 20 7 20 18 0 34 40 78 121 132 46
30 92 68 103 83 21 29 21 29 1 43 -76 56 -292 76 -437 40 l-78 -19 -80 77
c-44 42 -89 76 -100 76 -28 0 -43 -36 -37 -87 5 -51 -7 -53 -39 -5 -42 62 -39
188 7 253 63 90 336 111 544 41 47 -15 85 -27 85 -25 0 2 -26 43 -57 91 -67
102 -124 161 -182 186 -46 21 -47 25 -31 124 12 72 3 97 -37 113 -21 8 -36 5
-75 -14 l-48 -24 0 29 c0 36 22 88 46 110 11 9 47 30 81 47 57 29 66 30 109
21 107 -24 180 -83 296 -240 39 -52 84 -110 101 -128 l31 -32 -16 -45 c-15
-40 -15 -50 -2 -92 8 -27 21 -59 29 -73 l14 -25 23 50 c22 47 23 61 23 265 0
187 3 221 19 258 14 33 16 45 6 57 -20 25 -79 38 -139 31 l-56 -7 36 37 c70
70 202 94 288 52z"
    />
    <path
      d="M6760 11533 c0 -18 67 -73 101 -83 36 -11 89 -5 89 10 0 13 -28 39
-59 55 -35 17 -131 31 -131 18z"
    />
  </g>
</svg>
