<svg
  preserveAspectRatio="xMidYMid meet"
  data-bbox="0 0 784.7 139.5"
  viewBox="0 0 784.7 139.5"
  xmlns="http://www.w3.org/2000/svg"
  data-type="color"
  role="presentation"
  aria-hidden="true"
>
  <g>
    <g>
      <g>
        <path
          d="M784.7 97.8c0-35.3-62.5-40.7-62.5-68.3 0-14 8.8-23.4 23.4-23.4 14.8 0 23 7.5 27.4 27 .2 1.2 1.3 1.5 2.9 1.5 1.3 0 2.7-.8 2.5-1.5-1.6-10.6-2.3-18.8-3.1-29.7C763.2 3.4 759 0 745.8 0c-25.3 0-40.9 18-40.9 37.2 0 37.2 62.9 39.7 62.9 70.6 0 15.2-7.9 25.5-24.4 25.5-19.4 0-29-8.6-35.9-32.4a2.3 2.3 0 0 0-2.5-1.5c-1.5 0-2.9.6-2.9 1.5 1 9.2 1.9 22.2 2.3 32.6 14.4 0 21.7 5.9 38.2 5.9 26 .1 42.1-16.2 42.1-41.6M686.4 5.6c0-1.3-.8-2.7-1.5-2.7-9.6 0-14.2 1.2-23.4 1.2s-14.8-1.2-23.6-1.2c-.8 0-1.5 1.3-1.5 2.7s.8 2.7 1.5 2.7c18.6 2.3 20.3 6.3 20.3 16.3v58.3c0 33-14.2 48-38 48-22.3 0-38-9-38-45.7V24.6c0-10 1.3-14 20-16.3.8 0 1.5-1.1 1.5-2.7 0-1.3-.8-2.7-1.5-2.7-12.7 0-17.8 1.1-29.7 1.1S555.6 2.9 543 2.9c-1 0-1.5 1.3-1.5 2.7s.6 2.7 1.5 2.7c18.6 2.3 19.8 6.3 19.8 16.3v63.3c0 28.8 17.1 51.6 54.5 51.6 33.6 0 47.4-24.8 47.4-54.7V24.6c0-10.2 1.7-14 20.3-16.3.7-.1 1.5-1.2 1.4-2.7M539.7 133.7a2.62 2.62 0 0 0-1.7-2.7c-11.9-1.3-18.6-3.1-27.6-12.5l-54.5-55.3 43.7-41.8c10.2-9.4 15.2-11.7 27.2-13.2.8 0 1.5-1 1.5-2.7 0-1.3-.6-2.7-1.3-2.7-7.9 0-10.7 1.1-20.5 1.1-10.2 0-15.7-1.1-24.9-1.1-1 0-1.7 1.3-1.7 2.7s.6 2.7 1.5 2.7c8.8 1.2 12.3 2.3 12.3 6.1 0 2.1-2.1 4.2-5.2 7.1L446.3 63c-4.2 4-6.5 5-11.5 5V24.6c0-10 1.3-14 20-16.3.8 0 1.5-1.1 1.5-2.7 0-1.3-.8-2.7-1.5-2.7C442.1 2.9 437 4 425.1 4c-11.7 0-16.9-1.1-29.5-1.1-.8 0-1.5 1.3-1.5 2.7s.8 2.7 1.5 2.7c18.6 2.3 20 6.3 20 16.3v90.3c0 9.8-1.3 14-20 16.1-.8.2-1.5 1.1-1.5 2.7s.8 2.7 1.5 2.7c12.7 0 17.8-1.1 29.5-1.1 11.9 0 17.1 1.1 29.7 1.1.8 0 1.5-1.1 1.5-2.7a2.77 2.77 0 0 0-1.5-2.7c-18.6-2.1-20-6.3-20-16.1V74.2c5.4 0 7.5 1 11.5 5l38.2 38.8c2.9 2.9 4.2 5 4.2 6.9 0 3.3-4.2 5.2-13 6.1-.8.2-1.3 1.1-1.3 2.7s.8 2.7 1.5 2.7c12.7 0 20.9-1.1 32.6-1.1 11.9 0 17.1 1.1 29.7 1.1.7 0 1.5-1.1 1.5-2.7M332.5 37.4c0 20.1-7.9 30.7-29.7 30.7a93.16 93.16 0 0 1-14-.8V24.6c0-10 .4-15.2 19.2-15.2 18.5 0 24.5 11.9 24.5 28m48.9 96.3c0-1.5-.6-2.5-1.3-2.7-17.3-1.9-22.3-8.1-25.5-13.4l-31.1-47.2c17.5-6.1 30.1-18.4 30.1-33 0-21.1-15.4-34.5-44.9-34.5-12.7 0-17.8 1.2-29.7 1.2s-16.9-1.2-29.6-1.2c-1 0-1.5 1.3-1.5 2.7s.6 2.7 1.5 2.7c18.6 2.3 19.8 6.3 19.8 16.3v90.3c0 9.8-1.1 14-19.8 16.1q-1.5.3-1.5 2.7c0 1.6.6 2.7 1.5 2.7 12.7 0 17.7-1.1 29.5-1.1s17.1 1.1 29.7 1.1c.8 0 1.5-1.1 1.5-2.7a2.77 2.77 0 0 0-1.5-2.7c-18.6-2.1-20-6.3-20-16.1V73.6c14.6 0 16.5 1.5 25.1 15.3l29.2 47.4c5.6 0 11.9-1.1 17.5-1.1 4.2 0 12.9 1.1 19.4 1.1 1 .1 1.5-1 1.6-2.6m-156.2 0c0-1.5-.6-2.5-1.5-2.7-18.6-2.1-19.8-6.3-19.8-16.1V24.6c0-10 1.1-14 19.8-16.3 1 0 1.5-1.1 1.5-2.7 0-1.3-.6-2.7-1.5-2.7C211 2.9 206.1 4 194.2 4s-17-1.1-29.8-1.1c-.8 0-1.5 1.3-1.5 2.7s.8 2.7 1.5 2.7c18.6 2.3 20 6.3 20 16.3v90.3c0 9.8-1.3 14-20 16.1-.8.2-1.5 1.1-1.5 2.7s.8 2.7 1.5 2.7c12.9 0 17.8-1.1 29.7-1.1s16.9 1.1 29.5 1.1c1 0 1.6-1.1 1.6-2.7m-79.4 0a2.62 2.62 0 0 0-1.7-2.7c-11.9-1.3-18.6-3.1-27.6-12.5L62 63.3l43.7-41.8c10.2-9.4 15.2-11.7 27.2-13.2.8 0 1.5-1 1.5-2.7 0-1.3-.6-2.7-1.3-2.7-7.9 0-10.7 1.2-20.5 1.2-10.2 0-15.7-1.2-24.9-1.2-1 0-1.7 1.3-1.7 2.7s.6 2.7 1.5 2.7c8.8 1.2 12.3 2.3 12.3 6.1 0 2.1-2.1 4.2-5.2 7.1L52.4 63.1c-4.2 4-6.5 5-11.5 5V24.6c0-10 1.3-14 20-16.3.8 0 1.5-1.1 1.5-2.7 0-1.3-.8-2.7-1.5-2.7C48.2 2.9 43.1 4 31.2 4s-17-1.1-29.6-1.1C.8 2.9 0 4.2 0 5.6s.8 2.7 1.5 2.7c18.6 2.3 20 6.3 20 16.3V115c0 9.8-1.3 14-20 16.1-.8.2-1.5 1.1-1.5 2.7s.8 2.7 1.5 2.7c12.7 0 17.8-1.1 29.5-1.1 11.9 0 17.1 1.1 29.7 1.1.8 0 1.5-1.1 1.5-2.7a2.77 2.77 0 0 0-1.5-2.7c-18.6-2.1-20-6.3-20-16.1V74.3c5.4 0 7.5 1 11.5 5l38.2 38.8c2.9 2.9 4.2 5 4.2 6.9 0 3.3-4.2 5.2-13 6.1-.8.2-1.3 1.1-1.3 2.7s.8 2.7 1.5 2.7c12.7 0 20.9-1.1 32.6-1.1 11.9 0 17.1 1.1 29.7 1.1.9-.1 1.7-1.2 1.7-2.8"
          fill="#13699b"
          data-color="1"
        ></path>
      </g>
    </g>
  </g>
</svg>
